<?xml version="1.0" encoding="UTF-8"?>
<svg xmlns="http://www.w3.org/2000/svg" xmlns:xlink="http://www.w3.org/1999/xlink" width="px" height="35px" viewBox="0 0 35 35" version="1.1">
<g id="surface1">
<path style=" stroke:none;fill-rule:nonzero;fill:rgb(60.392157%,9.803922%,39.215686%);fill-opacity:1;" d="M 17.5 2.917969 C 9.480469 2.917969 2.917969 9.480469 2.917969 17.5 C 2.917969 25.519531 9.480469 32.082031 17.5 32.082031 C 25.519531 32.082031 32.082031 25.519531 32.082031 17.5 C 32.082031 9.480469 25.519531 2.917969 17.5 2.917969 Z M 23.417969 23.925781 C 23.140625 23.925781 23.003906 23.789062 22.730469 23.652344 C 20.671875 22.417969 18.066406 21.730469 15.324219 21.730469 C 13.816406 21.730469 12.167969 22.003906 10.796875 22.277344 C 10.523438 22.277344 10.25 22.417969 10.113281 22.417969 C 9.5625 22.417969 9.152344 22.003906 9.152344 21.457031 C 9.152344 20.90625 9.425781 20.496094 9.976562 20.496094 C 11.757812 20.085938 13.542969 19.8125 15.460938 19.8125 C 18.617188 19.8125 21.5 20.632812 23.96875 22.007812 C 24.242188 22.28125 24.515625 22.417969 24.515625 22.964844 C 24.238281 23.652344 23.828125 23.925781 23.417969 23.925781 Z M 24.925781 20.085938 C 24.648438 20.085938 24.375 19.949219 24.101562 19.8125 C 21.769531 18.300781 18.476562 17.480469 14.910156 17.480469 C 13.128906 17.480469 11.480469 17.753906 10.246094 18.027344 C 9.972656 18.164062 9.835938 18.164062 9.5625 18.164062 C 8.875 18.164062 8.464844 17.617188 8.464844 17.066406 C 8.464844 16.382812 8.738281 16.105469 9.421875 15.832031 C 11.070312 15.421875 12.714844 15.007812 15.046875 15.007812 C 18.890625 15.007812 22.457031 15.96875 25.472656 17.753906 C 25.886719 18.027344 26.160156 18.4375 26.160156 18.851562 C 26.023438 19.535156 25.609375 20.085938 24.925781 20.085938 Z M 26.707031 15.695312 C 26.433594 15.695312 26.296875 15.558594 25.886719 15.421875 C 23.140625 13.910156 19.164062 12.953125 15.324219 12.953125 C 13.402344 12.953125 11.34375 13.226562 9.5625 13.636719 C 9.285156 13.636719 9.148438 13.773438 8.738281 13.773438 C 7.914062 13.914062 7.367188 13.226562 7.367188 12.402344 C 7.367188 11.582031 7.777344 11.167969 8.324219 11.03125 C 10.523438 10.484375 12.855469 10.207031 15.324219 10.207031 C 19.574219 10.207031 23.964844 11.167969 27.394531 12.953125 C 27.804688 13.226562 28.21875 13.636719 28.21875 14.324219 C 28.082031 15.144531 27.53125 15.695312 26.707031 15.695312 Z M 26.707031 15.695312 "/>
</g>
</svg>
