<?xml version="1.0" encoding="UTF-8"?>
<svg xmlns="http://www.w3.org/2000/svg" xmlns:xlink="http://www.w3.org/1999/xlink" width="px" height="35px" viewBox="0 0 35 35" version="1.1">
<g id="surface1">
<path style=" stroke:none;fill-rule:nonzero;fill:rgb(60.392157%,9.803922%,39.215686%);fill-opacity:1;" d="M 31.472656 9.019531 C 31.136719 7.765625 30.148438 6.777344 28.894531 6.441406 C 26.621094 5.832031 17.5 5.832031 17.5 5.832031 C 17.5 5.832031 8.378906 5.832031 6.105469 6.441406 C 4.851562 6.777344 3.863281 7.765625 3.527344 9.019531 C 2.917969 11.296875 2.917969 17.5 2.917969 17.5 C 2.917969 17.5 2.917969 23.703125 3.527344 25.980469 C 3.863281 27.234375 4.851562 28.222656 6.105469 28.558594 C 8.378906 29.167969 17.5 29.167969 17.5 29.167969 C 17.5 29.167969 26.621094 29.167969 28.894531 28.558594 C 30.152344 28.222656 31.136719 27.234375 31.472656 25.980469 C 32.082031 23.703125 32.082031 17.5 32.082031 17.5 C 32.082031 17.5 32.082031 11.296875 31.472656 9.019531 Z M 14.582031 22.550781 L 14.582031 12.449219 L 23.332031 17.5 Z M 14.582031 22.550781 "/>
</g>
</svg>
