<?xml version="1.0" encoding="UTF-8"?>
<svg xmlns="http://www.w3.org/2000/svg" xmlns:xlink="http://www.w3.org/1999/xlink" width="35px" height="35px" viewBox="0 0 35 35" version="1.1">
<g id="surface1">
<path style=" stroke:none;fill-rule:nonzero;fill:rgb(60.392157%,9.803922%,39.215686%);fill-opacity:1;" d="M 28.566406 9.75 C 25.578125 9.109375 23.351562 6.601562 23.070312 3.558594 L 23.070312 2.917969 L 18.046875 2.917969 L 18.046875 22.855469 C 18.039062 24.664062 16.878906 26.269531 15.164062 26.84375 C 13.449219 27.417969 11.554688 26.835938 10.460938 25.398438 L 10.457031 25.394531 L 10.460938 25.398438 C 9.347656 23.929688 9.3125 21.914062 10.375 20.410156 C 11.433594 18.90625 13.347656 18.261719 15.101562 18.820312 L 15.101562 13.714844 C 11.195312 13.175781 7.375 15.179688 5.597656 18.703125 C 3.820312 22.222656 4.480469 26.484375 7.234375 29.308594 C 9.859375 31.992188 13.847656 32.820312 17.320312 31.40625 C 20.796875 29.988281 23.070312 26.609375 23.070312 22.855469 L 23.070312 12.667969 C 25.101562 14.121094 27.535156 14.898438 30.03125 14.894531 L 30.03125 9.902344 C 29.539062 9.902344 29.046875 9.851562 28.566406 9.75 Z M 28.566406 9.75 "/>
</g>
</svg>
